<?xml version="1.0" encoding="UTF-8"?>
<svg id="Layer_1" data-name="Layer 1" xmlns="http://www.w3.org/2000/svg" viewBox="0 0 372.89 126.09">
  <defs>
    <style>
      .cls-1 {
        fill: #231f20;
      }
    </style>
  </defs>
  <polygon class="cls-1" points="0 126.09 13.75 75.97 69.37 75.97 84.64 126.09 66.62 126.09 58.67 91.56 24.75 91.56 16.5 126.09 0 126.09"/>
  <polygon class="cls-1" points="33 1.72 13.75 75.97 27.5 75.97 40.64 24.02 55.92 75.97 69.37 75.97 51.03 1.72 33 1.72"/>
  <polygon class="cls-1" points="95.95 126.09 111.54 126.09 111.54 79.03 129.87 79.03 147.9 126.09 167.12 126.09 146.68 73.78 95.95 75.97 95.95 126.09"/>
  <path class="cls-1" d="M95.95,1.43v38.91l15-.16v-23.1s23.89-2.41,27.5,1.85c10.15,11.95,6.75,31.13,6.75,31.13,0,0,18.77,0,18.92-4.16.97-27.09-9.58-35.57-20.66-42.68-9.37-6.01-47.51-1.8-47.51-1.8Z"/>
  <path class="cls-1" d="M95.95,76.14v-36.37h15v21.89s23.89,2.35,27.5-1.81c10.15-11.68,6.92-23.49,6.92-23.49,0,0,19.16,5.5,18.75,9.56-2.76,27.01-18.28,29.09-20.88,29.73-11.39,2.81-47.29.49-47.29.49Z"/>
  <polygon class="cls-1" points="177.61 1.72 194.36 1.72 192.16 58.33 229.63 1.72 249.46 1.72 213.54 58.33 249.46 126.09 232.71 126.09 204.06 71.81 194.36 85.48 194.36 126.09 177.61 126.09 177.61 1.72"/>
  <rect class="cls-1" x="260.48" y="1.72" width="16.31" height="124.37"/>
  <polygon class="cls-1" points="288.25 1.72 304.56 1.72 330.13 103.99 355.69 1.72 372.89 1.72 341.59 126.09 321.31 126.09 288.25 1.72"/>
</svg>